<?xml version="1.0" encoding="UTF-8"?>
<!DOCTYPE svg PUBLIC "-//W3C//DTD SVG 1.1//EN" "http://www.w3.org/Graphics/SVG/1.1/DTD/svg11.dtd">
<svg xmlns="http://www.w3.org/2000/svg" version="1.1" width="585px" height="426px" style="shape-rendering:geometricPrecision; text-rendering:geometricPrecision; image-rendering:optimizeQuality; fill-rule:evenodd; clip-rule:evenodd" xmlns:xlink="http://www.w3.org/1999/xlink">
<g><path style="opacity:0.357" fill="#a8a8a8" d="M 256.5,59.5 C 258.304,58.838 260.304,58.5046 262.5,58.5C 266.117,58.3981 269.45,59.0648 272.5,60.5C 267.195,59.8058 261.862,59.4724 256.5,59.5 Z"/></g>
<g><path style="opacity:1" fill="#252525" d="M 256.5,59.5 C 261.862,59.4724 267.195,59.8058 272.5,60.5C 280.396,62.7284 285.729,67.7284 288.5,75.5C 288.833,76.1667 289.167,76.8333 289.5,77.5C 290.39,79.7819 290.556,82.1152 290,84.5C 284.693,66.8193 272.859,59.6527 254.5,63C 246.372,65.0565 240.038,69.5565 235.5,76.5C 234.646,75.3684 234.646,74.035 235.5,72.5C 236.906,72.0269 237.573,71.0269 237.5,69.5C 240.089,68.5806 242.089,66.914 243.5,64.5C 243.842,63.6618 244.508,63.3284 245.5,63.5C 249.431,62.6109 253.098,61.2775 256.5,59.5 Z"/></g>
<g><path style="opacity:0.894" fill="#5f5f5f" d="M 256.5,59.5 C 253.098,61.2775 249.431,62.6109 245.5,63.5C 248.569,60.8101 252.236,59.4767 256.5,59.5 Z"/></g>
<g><path style="opacity:0.999" fill="#fcfcfc" d="M 289.5,77.5 C 294.109,74.8665 299.109,73.8665 304.5,74.5C 309.485,75.1527 313.485,77.486 316.5,81.5C 317.723,97.7362 310.557,108.07 295,112.5C 294.235,112.43 293.735,112.097 293.5,111.5C 294.635,109.255 295.135,106.922 295,104.5C 292.526,110.144 288.359,113.811 282.5,115.5C 277.968,115.818 273.634,115.485 269.5,114.5C 269.649,113.448 269.483,112.448 269,111.5C 268.148,112.571 267.315,113.571 266.5,114.5C 258.608,120.602 249.608,123.602 239.5,123.5C 237.716,123.107 236.05,122.441 234.5,121.5C 233.746,119.554 232.412,118.721 230.5,119C 231.5,120 232.5,121 233.5,122C 230.518,122.498 227.518,122.665 224.5,122.5C 216.287,122.599 208.287,123.433 200.5,125C 196.453,121.027 194.453,116.194 194.5,110.5C 195.58,106.147 197.747,105.147 201,107.5C 199.987,101.909 200.82,96.5756 203.5,91.5C 206.576,88.4475 209.91,85.6142 213.5,83C 216.063,81.9207 218.729,81.4207 221.5,81.5C 223.5,81.5 225.5,81.5 227.5,81.5C 228.496,81.4142 229.329,81.7476 230,82.5C 230.333,85.5 230.667,88.5 231,91.5C 232.079,86.3193 233.579,81.3193 235.5,76.5C 240.038,69.5565 246.372,65.0565 254.5,63C 272.859,59.6527 284.693,66.8193 290,84.5C 290.556,82.1152 290.39,79.7819 289.5,77.5 Z"/></g>
<g><path style="opacity:0.812" fill="#747474" d="M 243.5,64.5 C 242.089,66.914 240.089,68.5806 237.5,69.5C 238.911,67.086 240.911,65.4194 243.5,64.5 Z"/></g>
<g><path style="opacity:0.725" fill="#8d8d8d" d="M 237.5,69.5 C 237.573,71.0269 236.906,72.0269 235.5,72.5C 235.427,70.9731 236.094,69.9731 237.5,69.5 Z"/></g>
<g><path style="opacity:0.686" fill="#757575" d="M 311.5,73.5 C 306.871,72.519 302.204,72.3523 297.5,73C 300.036,73.1862 302.369,73.6862 304.5,74.5C 299.109,73.8665 294.109,74.8665 289.5,77.5C 289.167,76.8333 288.833,76.1667 288.5,75.5C 294.981,71.7758 301.981,70.6092 309.5,72C 310.416,72.2784 311.082,72.7784 311.5,73.5 Z"/></g>
<g><path style="opacity:0.592" fill="#a2a2a2" d="M 317.5,76.5 C 319.262,77.2623 320.262,78.5956 320.5,80.5C 318.738,79.7377 317.738,78.4044 317.5,76.5 Z"/></g>
<g><path style="opacity:1" fill="#3c3c3c" d="M 235.5,72.5 C 234.646,74.035 234.646,75.3684 235.5,76.5C 233.579,81.3193 232.079,86.3193 231,91.5C 230.667,88.5 230.333,85.5 230,82.5C 229.329,81.7476 228.496,81.4142 227.5,81.5C 228.209,80.596 229.209,80.2627 230.5,80.5C 231.653,77.53 233.32,74.8633 235.5,72.5 Z"/></g>
<g><path style="opacity:0.882" fill="#6f6f6f" d="M 217.5,78.5 C 215.898,80.0739 213.898,80.7406 211.5,80.5C 213.102,78.9261 215.102,78.2594 217.5,78.5 Z"/></g>
<g><path style="opacity:1" fill="#6a6a6a" d="M 226.5,78.5 C 228.153,78.6596 229.486,79.3263 230.5,80.5C 229.209,80.2627 228.209,80.596 227.5,81.5C 225.5,81.5 223.5,81.5 221.5,81.5C 223.531,81.0276 225.198,80.0276 226.5,78.5 Z"/></g>
<g><path style="opacity:1" fill="#292929" d="M 226.5,78.5 C 225.198,80.0276 223.531,81.0276 221.5,81.5C 218.729,81.4207 216.063,81.9207 213.5,83C 209.91,85.6142 206.576,88.4475 203.5,91.5C 202.697,90.5768 202.53,89.5768 203,88.5C 205.04,86.6298 206.873,84.6298 208.5,82.5C 208.973,81.0937 209.973,80.427 211.5,80.5C 213.898,80.7406 215.898,80.0739 217.5,78.5C 220.362,77.3187 223.362,77.3187 226.5,78.5 Z"/></g>
<g><path style="opacity:0.557" fill="#7f7f7f" d="M 320.5,80.5 C 321.906,80.9731 322.573,81.9731 322.5,83.5C 321.094,83.0269 320.427,82.0269 320.5,80.5 Z"/></g>
<g><path style="opacity:1" fill="#222222" d="M 311.5,73.5 C 313.784,73.9752 315.784,74.9752 317.5,76.5C 317.738,78.4044 318.738,79.7377 320.5,80.5C 320.427,82.0269 321.094,83.0269 322.5,83.5C 324.074,85.1016 324.741,87.1016 324.5,89.5C 324.533,93.8689 324.2,98.2022 323.5,102.5C 322.921,105.331 321.588,107.664 319.5,109.5C 317.973,109.427 316.973,110.094 316.5,111.5C 313.808,114.181 310.475,115.514 306.5,115.5C 303.482,115.665 300.482,115.498 297.5,115C 317.507,113.134 324.674,102.634 319,83.5C 318.292,82.6195 317.458,81.9528 316.5,81.5C 313.485,77.486 309.485,75.1527 304.5,74.5C 302.369,73.6862 300.036,73.1862 297.5,73C 302.204,72.3523 306.871,72.519 311.5,73.5 Z"/></g>
<g><path style="opacity:0.392" fill="#b5b5b5" d="M 324.5,89.5 C 325.16,90.964 325.493,92.6307 325.5,94.5C 325.618,97.4857 324.952,100.152 323.5,102.5C 324.2,98.2022 324.533,93.8689 324.5,89.5 Z"/></g>
<g><path style="opacity:1" fill="#484848" d="M 208.5,82.5 C 206.873,84.6298 205.04,86.6298 203,88.5C 202.53,89.5768 202.697,90.5768 203.5,91.5C 200.82,96.5756 199.987,101.909 201,107.5C 197.747,105.147 195.58,106.147 194.5,110.5C 193.833,111.167 193.167,111.833 192.5,112.5C 192.062,111.494 191.396,111.494 190.5,112.5C 191.694,108.468 194.194,105.468 198,103.5C 197.892,97.7898 199.225,92.4565 202,87.5C 203.777,85.2101 205.944,83.5434 208.5,82.5 Z"/></g>
<g><path style="opacity:0.004" fill="#cccccc" d="M 319.5,109.5 C 319.027,110.906 318.027,111.573 316.5,111.5C 316.973,110.094 317.973,109.427 319.5,109.5 Z"/></g>
<g><path style="opacity:1" fill="#1c1c1c" d="M 293.5,111.5 C 292.026,112.436 291.026,113.77 290.5,115.5C 288.003,117.871 285.003,118.871 281.5,118.5C 277.395,118.766 273.395,118.266 269.5,117C 274.019,116.825 278.353,116.325 282.5,115.5C 288.359,113.811 292.526,110.144 295,104.5C 295.135,106.922 294.635,109.255 293.5,111.5 Z"/></g>
<g><path style="opacity:0.886" fill="#cececd" d="M 316.5,81.5 C 317.458,81.9528 318.292,82.6195 319,83.5C 324.674,102.634 317.507,113.134 297.5,115C 300.482,115.498 303.482,115.665 306.5,115.5C 304.433,117.318 303.1,119.651 302.5,122.5C 304.594,123.518 306.594,124.518 308.5,125.5C 306.139,125.326 303.806,124.993 301.5,124.5C 300.293,124.378 299.626,125.378 299.5,127.5C 298.566,128.568 298.232,129.901 298.5,131.5C 297.539,133.265 297.205,135.265 297.5,137.5C 292.637,137.181 287.97,137.514 283.5,138.5C 281.167,138.5 278.833,138.5 276.5,138.5C 278.463,137.18 280.463,135.846 282.5,134.5C 289.846,130.095 292.513,123.762 290.5,115.5C 291.026,113.77 292.026,112.436 293.5,111.5C 293.735,112.097 294.235,112.43 295,112.5C 310.557,108.07 317.723,97.7362 316.5,81.5 Z"/></g>
<g><path style="opacity:1" fill="#cccccc" d="M 194.5,110.5 C 194.453,116.194 196.453,121.027 200.5,125C 208.287,123.433 216.287,122.599 224.5,122.5C 224.5,122.833 224.5,123.167 224.5,123.5C 218.424,125.368 212.424,127.534 206.5,130C 199.766,131.549 195.266,129.049 193,122.5C 192.502,119.183 192.335,115.85 192.5,112.5C 193.167,111.833 193.833,111.167 194.5,110.5 Z"/></g>
<g><path style="opacity:0.765" fill="#959595" d="M 269.5,114.5 C 273.634,115.485 277.968,115.818 282.5,115.5C 278.353,116.325 274.019,116.825 269.5,117C 273.395,118.266 277.395,118.766 281.5,118.5C 281.5,119.167 281.167,119.5 280.5,119.5C 276.131,119.533 271.798,119.2 267.5,118.5C 267.66,116.847 268.326,115.514 269.5,114.5 Z"/></g>
<g><path style="opacity:0.484" fill="#fcfcfc" d="M 290.5,115.5 C 292.513,123.762 289.846,130.095 282.5,134.5C 280.605,134.087 278.605,133.753 276.5,133.5C 275.218,131.821 274.218,129.987 273.5,128C 275.711,125.215 278.377,122.882 281.5,121C 280.944,120.617 280.611,120.117 280.5,119.5C 281.167,119.5 281.5,119.167 281.5,118.5C 285.003,118.871 288.003,117.871 290.5,115.5 Z"/></g>
<g><path style="opacity:1" fill="#725d53" d="M 353.5,120.5 C 350.5,119.167 347.5,119.167 344.5,120.5C 347.5,116.5 350.5,116.5 353.5,120.5 Z"/></g>
<g><path style="opacity:0.757" fill="#7f7f7f" d="M 190.5,112.5 C 190.5,116.833 190.5,121.167 190.5,125.5C 187.833,121.167 187.833,116.833 190.5,112.5 Z"/></g>
<g><path style="opacity:1" fill="#c9c9c9" d="M 266.5,114.5 C 265.797,116.716 264.464,118.549 262.5,120C 259.107,121.62 255.774,123.12 252.5,124.5C 247.968,124.818 243.634,124.485 239.5,123.5C 249.608,123.602 258.608,120.602 266.5,114.5 Z"/></g>
<g><path style="opacity:0.936" fill="#868686" d="M 234.5,121.5 C 234.782,122.778 235.449,123.778 236.5,124.5C 232.846,124.942 229.179,125.276 225.5,125.5C 226.609,124.71 227.942,124.21 229.5,124C 227.866,123.506 226.199,123.34 224.5,123.5C 224.5,123.167 224.5,122.833 224.5,122.5C 227.518,122.665 230.518,122.498 233.5,122C 232.5,121 231.5,120 230.5,119C 232.412,118.721 233.746,119.554 234.5,121.5 Z"/></g>
<g><path style="opacity:1" fill="#5b3a2b" d="M 353.5,120.5 C 359.247,124.803 364.747,129.469 370,134.5C 370.868,138.672 369.368,141.838 365.5,144C 362.28,146.437 358.947,148.603 355.5,150.5C 356.089,148.648 356.756,146.815 357.5,145C 356.906,144.536 356.239,144.369 355.5,144.5C 357.76,142.35 360.093,140.183 362.5,138C 362.167,137.833 361.833,137.667 361.5,137.5C 357.471,140.177 353.471,142.844 349.5,145.5C 349.167,145.5 348.833,145.5 348.5,145.5C 348.821,143.952 349.821,143.285 351.5,143.5C 351.343,142.127 351.51,140.793 352,139.5C 355.412,137.255 357.912,134.255 359.5,130.5C 359.167,130.167 358.833,129.833 358.5,129.5C 357.824,130.602 357.158,131.602 356.5,132.5C 356.5,132.167 356.5,131.833 356.5,131.5C 356.103,130.475 355.437,130.308 354.5,131C 351.175,134.647 347.508,137.814 343.5,140.5C 341.999,141.752 340.332,142.752 338.5,143.5C 337.599,142.71 336.932,141.71 336.5,140.5C 337.833,139.5 337.833,138.5 336.5,137.5C 341.107,134.232 345.441,130.565 349.5,126.5C 350.404,125.791 350.737,124.791 350.5,123.5C 348.473,123.338 346.473,123.505 344.5,124C 343.339,125.828 341.839,127.328 340,128.5C 338.97,128.164 338.47,127.497 338.5,126.5C 341.5,125.5 343.5,123.5 344.5,120.5C 347.5,119.167 350.5,119.167 353.5,120.5 Z M 356.5,131.5 C 353.5,133.833 350.833,136.5 348.5,139.5C 346.668,140.248 345.001,141.248 343.5,142.5C 343.5,141.833 343.5,141.167 343.5,140.5C 347.508,137.814 351.175,134.647 354.5,131C 355.437,130.308 356.103,130.475 356.5,131.5 Z"/></g>
<g><path style="opacity:1" fill="#404040" d="M 234.5,121.5 C 236.05,122.441 237.716,123.107 239.5,123.5C 243.634,124.485 247.968,124.818 252.5,124.5C 249.023,125.323 245.356,125.823 241.5,126C 242.056,126.383 242.389,126.883 242.5,127.5C 240.181,127.008 238.181,126.008 236.5,124.5C 235.449,123.778 234.782,122.778 234.5,121.5 Z"/></g>
<g><path style="opacity:1" fill="#313131" d="M 269.5,114.5 C 268.326,115.514 267.66,116.847 267.5,118.5C 263.11,125.199 256.777,128.532 248.5,128.5C 246.41,128.427 244.41,128.094 242.5,127.5C 242.389,126.883 242.056,126.383 241.5,126C 245.356,125.823 249.023,125.323 252.5,124.5C 255.774,123.12 259.107,121.62 262.5,120C 264.464,118.549 265.797,116.716 266.5,114.5C 267.315,113.571 268.148,112.571 269,111.5C 269.483,112.448 269.649,113.448 269.5,114.5 Z"/></g>
<g><path style="opacity:0.749" fill="#9f8d84" d="M 344.5,120.5 C 343.5,123.5 341.5,125.5 338.5,126.5C 340.167,124.167 342.167,122.167 344.5,120.5 Z"/></g>
<g><path style="opacity:0.341" fill="#fbecb5" d="M 309.5,125.5 C 312.542,125.733 315.208,126.733 317.5,128.5C 315.784,128.371 314.117,128.038 312.5,127.5C 311.29,127.068 310.29,126.401 309.5,125.5 Z"/></g>
<g><path style="opacity:1" fill="#806c2a" d="M 301.5,124.5 C 301.598,126.553 300.931,128.22 299.5,129.5C 299.5,128.833 299.5,128.167 299.5,127.5C 299.626,125.378 300.293,124.378 301.5,124.5 Z"/></g>
<g><path style="opacity:1" fill="#755a4d" d="M 349.5,126.5 C 349.631,125.761 349.464,125.094 349,124.5C 344.63,128.702 340.463,133.036 336.5,137.5C 336.167,137.5 335.833,137.5 335.5,137.5C 336.545,134.886 337.045,132.22 337,129.5C 336.184,130.823 335.017,131.489 333.5,131.5C 334.833,129.5 336.5,127.833 338.5,126.5C 338.47,127.497 338.97,128.164 340,128.5C 341.839,127.328 343.339,125.828 344.5,124C 346.473,123.505 348.473,123.338 350.5,123.5C 350.737,124.791 350.404,125.791 349.5,126.5 Z"/></g>
<g><path style="opacity:0.016" fill="#bebebe" d="M 192.5,128.5 C 193.5,128.833 194.167,129.5 194.5,130.5C 193.167,130.5 192.5,129.833 192.5,128.5 Z"/></g>
<g><path style="opacity:0.843" fill="#858585" d="M 194.5,130.5 C 196.434,131.11 198.101,132.11 199.5,133.5C 197.067,133.727 195.401,132.727 194.5,130.5 Z"/></g>
<g><path style="opacity:0.812" fill="#999691" d="M 222.5,126.5 C 224.5,130.167 226.5,133.833 228.5,137.5C 227.833,137.167 227.167,136.833 226.5,136.5C 225.292,135.766 223.959,135.433 222.5,135.5C 223.591,131.378 221.924,129.045 217.5,128.5C 218.93,127.463 220.597,126.796 222.5,126.5 Z"/></g>
<g><path style="opacity:1" fill="#232323" d="M 192.5,112.5 C 192.335,115.85 192.502,119.183 193,122.5C 195.266,129.049 199.766,131.549 206.5,130C 212.424,127.534 218.424,125.368 224.5,123.5C 226.199,123.34 227.866,123.506 229.5,124C 227.942,124.21 226.609,124.71 225.5,125.5C 224.791,126.404 223.791,126.737 222.5,126.5C 220.597,126.796 218.93,127.463 217.5,128.5C 216.713,130.104 215.38,130.771 213.5,130.5C 211.847,130.66 210.514,131.326 209.5,132.5C 206.437,134.697 203.104,135.03 199.5,133.5C 198.101,132.11 196.434,131.11 194.5,130.5C 194.167,129.5 193.5,128.833 192.5,128.5C 191.094,128.027 190.427,127.027 190.5,125.5C 190.5,121.167 190.5,116.833 190.5,112.5C 191.396,111.494 192.062,111.494 192.5,112.5 Z"/></g>
<g><path style="opacity:0.216" fill="#adadad" d="M 213.5,130.5 C 212.713,132.104 211.38,132.771 209.5,132.5C 210.514,131.326 211.847,130.66 213.5,130.5 Z"/></g>
<g><path style="opacity:1" fill="#f5d36c" d="M 312.5,127.5 C 314.117,128.038 315.784,128.371 317.5,128.5C 322.156,130.16 326.823,131.826 331.5,133.5C 331.167,134.5 330.5,135.167 329.5,135.5C 323.857,132.581 318.19,129.915 312.5,127.5 Z"/></g>
<g><path style="opacity:0.922" fill="#767578" d="M 298.5,131.5 C 298.5,133.833 298.5,136.167 298.5,138.5C 293.5,138.5 288.5,138.5 283.5,138.5C 287.97,137.514 292.637,137.181 297.5,137.5C 297.205,135.265 297.539,133.265 298.5,131.5 Z"/></g>
<g><path style="opacity:0.592" fill="#fbe08e" d="M 219.5,137.5 C 217.966,139.369 215.966,140.702 213.5,141.5C 214.802,139.178 216.802,137.845 219.5,137.5 Z"/></g>
<g><path style="opacity:1" fill="#25211b" d="M 299.5,127.5 C 299.5,128.167 299.5,128.833 299.5,129.5C 299.5,133.167 299.5,136.833 299.5,140.5C 290.301,140.03 281.301,140.697 272.5,142.5C 268.2,142.755 264.2,143.755 260.5,145.5C 250.13,147.921 240.13,151.254 230.5,155.5C 229.65,149.096 228.317,142.763 226.5,136.5C 227.167,136.833 227.833,137.167 228.5,137.5C 228.402,139.553 229.069,141.22 230.5,142.5C 231.924,144.515 232.59,146.848 232.5,149.5C 233.053,151.552 234.053,151.885 235.5,150.5C 239.358,150.23 242.691,148.897 245.5,146.5C 247.102,144.926 249.102,144.259 251.5,144.5C 256.438,143.769 261.105,142.435 265.5,140.5C 268.946,139.313 272.613,138.646 276.5,138.5C 278.833,138.5 281.167,138.5 283.5,138.5C 288.5,138.5 293.5,138.5 298.5,138.5C 298.5,136.167 298.5,133.833 298.5,131.5C 298.232,129.901 298.566,128.568 299.5,127.5 Z"/></g>
<g><path style="opacity:0.804" fill="#fade86" d="M 210.5,143.5 C 208.761,146.243 206.427,148.243 203.5,149.5C 205.239,146.757 207.573,144.757 210.5,143.5 Z"/></g>
<g><path style="opacity:0.525" fill="#fceba2" d="M 384.5,151.5 C 379.341,151.182 374.341,151.848 369.5,153.5C 370.347,152.034 371.68,151.2 373.5,151C 377.358,150.19 381.024,150.357 384.5,151.5 Z"/></g>
<g><path style="opacity:0.663" fill="#f8de95" d="M 355.5,150.5 C 357.167,153.167 358.833,155.833 360.5,158.5C 360.167,158.5 359.833,158.5 359.5,158.5C 357.806,156.139 355.806,154.139 353.5,152.5C 353.833,151.5 354.5,150.833 355.5,150.5 Z"/></g>
<g><path style="opacity:0.729" fill="#a2928b" d="M 176.5,152.5 C 175.167,154.5 173.5,156.167 171.5,157.5C 172.167,154.833 173.833,153.167 176.5,152.5 Z"/></g>
<g><path style="opacity:1" fill="#f8c52d" d="M 384.5,151.5 C 392.465,154.799 398.132,160.465 401.5,168.5C 401.357,170.262 401.691,171.929 402.5,173.5C 402.154,174.696 401.654,174.696 401,173.5C 400.781,174.938 400.281,176.271 399.5,177.5C 398.344,174.091 396.344,171.424 393.5,169.5C 393.371,166.13 391.705,164.13 388.5,163.5C 386.5,161.833 384.5,160.167 382.5,158.5C 381.551,157.848 380.385,157.514 379,157.5C 376.779,157.393 374.946,158.06 373.5,159.5C 372.205,160.488 370.872,161.488 369.5,162.5C 369.531,154.339 367.198,153.506 362.5,160C 360.843,160.725 359.843,160.225 359.5,158.5C 359.833,158.5 360.167,158.5 360.5,158.5C 363.245,156.432 366.245,154.766 369.5,153.5C 374.341,151.848 379.341,151.182 384.5,151.5 Z"/></g>
<g><path style="opacity:0.161" fill="#fcecb4" d="M 382.5,158.5 C 379.455,158.508 376.455,158.841 373.5,159.5C 374.946,158.06 376.779,157.393 379,157.5C 380.385,157.514 381.551,157.848 382.5,158.5 Z"/></g>
<g><path style="opacity:1" fill="#f7bf05" d="M 353.5,152.5 C 355.806,154.139 357.806,156.139 359.5,158.5C 359.843,160.225 360.843,160.725 362.5,160C 367.198,153.506 369.531,154.339 369.5,162.5C 368.571,163.315 367.571,164.148 366.5,165C 367.823,165.816 368.489,166.983 368.5,168.5C 369.711,172.526 371.545,176.192 374,179.5C 374.711,181.899 374.544,184.232 373.5,186.5C 374.848,186.45 376.348,186.783 378,187.5C 378.81,191.773 380.643,195.44 383.5,198.5C 383.41,201.152 384.076,203.485 385.5,205.5C 385.325,207.621 385.659,209.621 386.5,211.5C 381.091,213.054 376.925,216.388 374,221.5C 373.99,216.426 371.49,213.926 366.5,214C 362.796,223.793 357.963,232.96 352,241.5C 348.425,246.282 343.758,249.282 338,250.5C 336.289,250.561 334.956,249.894 334,248.5C 333.299,245.072 333.632,241.738 335,238.5C 341.646,237.729 347.813,235.562 353.5,232C 359.164,226.362 359.831,220.362 355.5,214C 345.987,214.172 338.154,218.006 332,225.5C 328.063,232.374 324.397,239.374 321,246.5C 319.062,249.39 316.895,252.056 314.5,254.5C 313.369,252.926 313.202,251.259 314,249.5C 316.759,241.485 319.926,233.651 323.5,226C 321.806,221.347 318.473,219.68 313.5,221C 310.296,223.869 307.463,227.035 305,230.5C 304.333,229.5 304.333,228.5 305,227.5C 308.67,219.978 311.836,212.312 314.5,204.5C 313.342,199.305 310.008,196.972 304.5,197.5C 300.928,216.735 293.762,234.402 283,250.5C 279.084,255.205 274.251,258.538 268.5,260.5C 266.971,260.471 265.804,259.804 265,258.5C 264.747,246.682 269.914,238.016 280.5,232.5C 281.386,235.116 280.72,237.449 278.5,239.5C 280.484,240.706 282.484,240.706 284.5,239.5C 289.228,235.005 290.561,229.671 288.5,223.5C 279.238,222.425 271.405,225.425 265,232.5C 262.277,235.557 259.944,238.89 258,242.5C 255.45,248.719 252.45,254.719 249,260.5C 247.649,262.019 246.149,263.352 244.5,264.5C 244.167,263.667 243.833,262.833 243.5,262C 247.532,250.74 251.866,239.573 256.5,228.5C 262.57,229.087 265.903,226.42 266.5,220.5C 264.051,221.057 261.718,221.057 259.5,220.5C 260.972,217.055 262.306,213.555 263.5,210C 262.533,206.213 260.033,204.38 256,204.5C 254.624,204.684 253.791,205.351 253.5,206.5C 252.388,208.599 251.721,210.933 251.5,213.5C 251.127,216.574 250.461,219.574 249.5,222.5C 247.473,222.338 245.473,222.505 243.5,223C 242.748,223.671 242.414,224.504 242.5,225.5C 241.957,225.56 241.624,225.893 241.5,226.5C 243.291,227.17 244.958,227.837 246.5,228.5C 243.325,236.181 240.158,243.848 237,251.5C 234.051,256.938 230.551,261.938 226.5,266.5C 225.359,264.579 225.192,262.579 226,260.5C 229.312,252.711 232.479,244.878 235.5,237C 235.244,234.523 233.911,232.856 231.5,232C 230.216,231.316 229.049,231.483 228,232.5C 224.075,241.356 220.408,250.356 217,259.5C 216.259,262.562 216.425,265.562 217.5,268.5C 211.531,270.074 207.031,268.074 204,262.5C 202.338,257.555 202.171,252.555 203.5,247.5C 213.857,237.31 223.69,226.643 233,215.5C 234.151,211.171 233.318,207.338 230.5,204C 228.633,203.289 227.133,203.789 226,205.5C 216.907,220.935 205.907,234.935 193,247.5C 196.468,237.097 199.968,226.597 203.5,216C 202.053,211.06 198.719,208.56 193.5,208.5C 189.886,208.804 186.552,209.971 183.5,212C 177.637,216.698 172.303,221.865 167.5,227.5C 167.76,221.828 168.093,216.161 168.5,210.5C 168.5,210.167 168.5,209.833 168.5,209.5C 169.924,207.485 170.59,205.152 170.5,202.5C 172.31,199.855 173.31,196.855 173.5,193.5C 174.887,188.396 176.554,183.396 178.5,178.5C 186.01,181.571 193.844,183.571 202,184.5C 208.018,184.159 212.684,181.492 216,176.5C 229.666,180.685 243.499,183.852 257.5,186C 251.144,188.182 244.811,190.349 238.5,192.5C 236.649,196.119 237.649,198.452 241.5,199.5C 252.334,196.5 263,193 273.5,189C 284.862,188.759 296.195,188.092 307.5,187C 310.167,185 310.167,183 307.5,181C 302.319,180.44 297.152,180.607 292,181.5C 290.5,181.333 289,181.167 287.5,181C 300.43,173.731 313.096,166.064 325.5,158C 326.5,157.333 327.5,157.333 328.5,158C 329.706,160.539 331.539,162.372 334,163.5C 340.737,160.216 347.237,156.549 353.5,152.5 Z"/></g>
<g><path style="opacity:0.847" fill="#fce192" d="M 388.5,163.5 C 391.705,164.13 393.371,166.13 393.5,169.5C 391.844,167.54 390.177,165.54 388.5,163.5 Z"/></g>
<g><path style="opacity:1" fill="#f5be08" d="M 301.5,124.5 C 303.806,124.993 306.139,125.326 308.5,125.5C 308.833,125.5 309.167,125.5 309.5,125.5C 310.29,126.401 311.29,127.068 312.5,127.5C 318.19,129.915 323.857,132.581 329.5,135.5C 326.562,137.934 323.729,140.601 321,143.5C 320.84,146.898 322.007,149.898 324.5,152.5C 312.051,161.258 299.051,169.258 285.5,176.5C 284.707,176.069 283.873,175.735 283,175.5C 279.868,176.993 276.701,178.493 273.5,180C 265.167,180.667 256.833,180.667 248.5,180C 237.849,177.727 227.182,175.56 216.5,173.5C 216.733,166.467 213.733,161.301 207.5,158C 204.429,156.704 201.429,155.538 198.5,154.5C 200.5,153.167 202.167,151.5 203.5,149.5C 206.427,148.243 208.761,146.243 210.5,143.5C 210.973,142.094 211.973,141.427 213.5,141.5C 215.966,140.702 217.966,139.369 219.5,137.5C 219.973,136.094 220.973,135.427 222.5,135.5C 223.959,135.433 225.292,135.766 226.5,136.5C 228.317,142.763 229.65,149.096 230.5,155.5C 240.13,151.254 250.13,147.921 260.5,145.5C 264.163,145.048 267.83,144.548 271.5,144C 272.056,143.617 272.389,143.117 272.5,142.5C 281.301,140.697 290.301,140.03 299.5,140.5C 299.5,136.833 299.5,133.167 299.5,129.5C 300.931,128.22 301.598,126.553 301.5,124.5 Z"/></g>
<g><path style="opacity:1" fill="#4a230c" d="M 293.5,149.5 C 300.1,148.996 301.934,151.996 299,158.5C 294.432,162.968 288.932,164.968 282.5,164.5C 278.67,164.633 275.004,163.966 271.5,162.5C 269.583,165.583 266.916,167.75 263.5,169C 257.672,171.227 251.672,171.893 245.5,171C 239.773,168.255 238.44,164.255 241.5,159C 242.167,158.333 242.833,158.333 243.5,159C 241.485,160.555 241.152,162.389 242.5,164.5C 243.768,165.428 245.101,165.595 246.5,165C 248.167,164 249.833,163 251.5,162C 254.167,158 257.5,154.667 261.5,152C 264.047,151.34 266.547,151.507 269,152.5C 270.853,150.813 273.019,149.813 275.5,149.5C 280.305,150.236 284.638,152.07 288.5,155C 291.482,155.498 294.482,155.665 297.5,155.5C 298.138,152.144 296.804,150.144 293.5,149.5 Z"/></g>
<g><path style="opacity:0.851" fill="#666767" d="M 245.5,146.5 C 242.691,148.897 239.358,150.23 235.5,150.5C 238.53,148.597 241.863,147.263 245.5,146.5 Z"/></g>
<g><path style="opacity:1" fill="#aa891f" d="M 272.5,142.5 C 272.389,143.117 272.056,143.617 271.5,144C 267.83,144.548 264.163,145.048 260.5,145.5C 264.2,143.755 268.2,142.755 272.5,142.5 Z"/></g>
<g><path style="opacity:0.796" fill="#7f7f7e" d="M 265.5,140.5 C 261.105,142.435 256.438,143.769 251.5,144.5C 255.805,142.254 260.471,140.92 265.5,140.5 Z"/></g>
<g><path style="opacity:0.165" fill="#c0c1c3" d="M 228.5,137.5 C 229.931,138.78 230.598,140.447 230.5,142.5C 229.069,141.22 228.402,139.553 228.5,137.5 Z"/></g>
<g><path style="opacity:0.463" fill="#ada79f" d="M 173.5,175.5 C 175.027,175.427 176.027,176.094 176.5,177.5C 174.973,177.573 173.973,176.906 173.5,175.5 Z"/></g>
<g><path style="opacity:0.369" fill="#fae8a8" d="M 372.5,174.5 C 373.906,174.973 374.573,175.973 374.5,177.5C 373.094,177.027 372.427,176.027 372.5,174.5 Z"/></g>
<g><path style="opacity:1" fill="#f8cc4c" d="M 401.5,168.5 C 403.341,170.849 404.674,173.515 405.5,176.5C 404.504,176.586 403.671,176.252 403,175.5C 403.234,178.909 403.068,182.242 402.5,185.5C 402.167,185.5 401.833,185.5 401.5,185.5C 398.853,180.205 396.186,174.872 393.5,169.5C 396.344,171.424 398.344,174.091 399.5,177.5C 400.281,176.271 400.781,174.938 401,173.5C 401.654,174.696 402.154,174.696 402.5,173.5C 401.691,171.929 401.357,170.262 401.5,168.5 Z"/></g>
<g><path style="opacity:0.973" fill="#f9dc84" d="M 405.5,176.5 C 407.065,178.509 408.065,180.843 408.5,183.5C 406.166,181.824 405.166,179.491 405.5,176.5 Z"/></g>
<g><path style="opacity:1" fill="#4c250f" d="M 335.5,137.5 C 331.894,139.437 328.894,142.103 326.5,145.5C 327.365,146.583 328.365,146.749 329.5,146C 331.422,143.57 333.755,141.737 336.5,140.5C 336.932,141.71 337.599,142.71 338.5,143.5C 336.188,145.636 333.688,147.636 331,149.5C 330.251,150.635 330.417,151.635 331.5,152.5C 336.382,150.082 340.382,146.749 343.5,142.5C 345.001,141.248 346.668,140.248 348.5,139.5C 351.764,137.906 354.431,135.573 356.5,132.5C 357.158,131.602 357.824,130.602 358.5,129.5C 358.833,129.833 359.167,130.167 359.5,130.5C 357.912,134.255 355.412,137.255 352,139.5C 351.51,140.793 351.343,142.127 351.5,143.5C 349.821,143.285 348.821,143.952 348.5,145.5C 348.5,145.833 348.5,146.167 348.5,146.5C 344.055,148.894 339.722,151.56 335.5,154.5C 334.614,155.325 334.281,156.325 334.5,157.5C 339.961,155.269 344.961,152.269 349.5,148.5C 350.71,148.068 351.71,147.401 352.5,146.5C 354.027,146.573 355.027,145.906 355.5,144.5C 356.239,144.369 356.906,144.536 357.5,145C 356.756,146.815 356.089,148.648 355.5,150.5C 354.5,150.833 353.833,151.5 353.5,152.5C 347.237,156.549 340.737,160.216 334,163.5C 331.539,162.372 329.706,160.539 328.5,158C 327.5,157.333 326.5,157.333 325.5,158C 313.096,166.064 300.43,173.731 287.5,181C 289,181.167 290.5,181.333 292,181.5C 297.152,180.607 302.319,180.44 307.5,181C 310.167,183 310.167,185 307.5,187C 296.195,188.092 284.862,188.759 273.5,189C 263,193 252.334,196.5 241.5,199.5C 237.649,198.452 236.649,196.119 238.5,192.5C 244.811,190.349 251.144,188.182 257.5,186C 243.499,183.852 229.666,180.685 216,176.5C 212.684,181.492 208.018,184.159 202,184.5C 193.844,183.571 186.01,181.571 178.5,178.5C 177.508,178.672 176.842,178.338 176.5,177.5C 176.027,176.094 175.027,175.427 173.5,175.5C 168.877,171.568 167.377,166.568 169,160.5C 169.852,159.429 170.685,158.429 171.5,157.5C 173.5,156.167 175.167,154.5 176.5,152.5C 183.319,148.402 189.985,148.736 196.5,153.5C 196.842,154.338 197.508,154.672 198.5,154.5C 201.429,155.538 204.429,156.704 207.5,158C 213.733,161.301 216.733,166.467 216.5,173.5C 227.182,175.56 237.849,177.727 248.5,180C 256.833,180.667 265.167,180.667 273.5,180C 276.701,178.493 279.868,176.993 283,175.5C 283.873,175.735 284.707,176.069 285.5,176.5C 299.051,169.258 312.051,161.258 324.5,152.5C 322.007,149.898 320.84,146.898 321,143.5C 323.729,140.601 326.562,137.934 329.5,135.5C 330.5,135.167 331.167,134.5 331.5,133.5C 331.833,132.5 332.5,131.833 333.5,131.5C 335.017,131.489 336.184,130.823 337,129.5C 337.045,132.22 336.545,134.886 335.5,137.5 Z M 356.5,131.5 C 353.5,133.833 350.833,136.5 348.5,139.5C 346.668,140.248 345.001,141.248 343.5,142.5C 343.5,141.833 343.5,141.167 343.5,140.5C 347.508,137.814 351.175,134.647 354.5,131C 355.437,130.308 356.103,130.475 356.5,131.5 Z"/></g>
<g><path style="opacity:1" fill="#e9b818" d="M 348.5,146.5 C 348.833,147.167 349.167,147.833 349.5,148.5C 344.961,152.269 339.961,155.269 334.5,157.5C 334.281,156.325 334.614,155.325 335.5,154.5C 339.722,151.56 344.055,148.894 348.5,146.5 Z"/></g>
<g><path style="opacity:0.447" fill="#ecdaab" d="M 203.5,149.5 C 202.167,151.5 200.5,153.167 198.5,154.5C 197.508,154.672 196.842,154.338 196.5,153.5C 198.833,152.167 201.167,150.833 203.5,149.5 Z"/></g>
<g><path style="opacity:0.161" fill="#d3d6d6" d="M 232.5,149.5 C 233.391,150.11 234.391,150.443 235.5,150.5C 234.053,151.885 233.053,151.552 232.5,149.5 Z"/></g>
<g><path style="opacity:0.027" fill="#ebe0cb" d="M 348.5,145.5 C 348.833,145.5 349.167,145.5 349.5,145.5C 350.209,146.404 351.209,146.737 352.5,146.5C 351.71,147.401 350.71,148.068 349.5,148.5C 349.167,147.833 348.833,147.167 348.5,146.5C 348.5,146.167 348.5,145.833 348.5,145.5 Z"/></g>
<g><path style="opacity:0.714" fill="#9f8e8c" d="M 355.5,144.5 C 355.027,145.906 354.027,146.573 352.5,146.5C 352.973,145.094 353.973,144.427 355.5,144.5 Z"/></g>
<g><path style="opacity:1" fill="#e8b826" d="M 343.5,140.5 C 343.5,141.167 343.5,141.833 343.5,142.5C 340.382,146.749 336.382,150.082 331.5,152.5C 330.417,151.635 330.251,150.635 331,149.5C 333.688,147.636 336.188,145.636 338.5,143.5C 340.332,142.752 341.999,141.752 343.5,140.5 Z"/></g>
<g><path style="opacity:1" fill="#e5b71e" d="M 335.5,137.5 C 335.833,137.5 336.167,137.5 336.5,137.5C 337.833,138.5 337.833,139.5 336.5,140.5C 333.755,141.737 331.422,143.57 329.5,146C 328.365,146.749 327.365,146.583 326.5,145.5C 328.894,142.103 331.894,139.437 335.5,137.5 Z"/></g>
<g><path style="opacity:0.671" fill="#9c8b85" d="M 356.5,131.5 C 356.5,131.833 356.5,132.167 356.5,132.5C 354.431,135.573 351.764,137.906 348.5,139.5C 350.833,136.5 353.5,133.833 356.5,131.5 Z"/></g>
<g><path style="opacity:1" fill="#f8cd50" d="M 368.5,168.5 C 370.822,169.802 372.155,171.802 372.5,174.5C 372.427,176.027 373.094,177.027 374.5,177.5C 378.844,183.862 381.844,190.862 383.5,198.5C 380.643,195.44 378.81,191.773 378,187.5C 376.348,186.783 374.848,186.45 373.5,186.5C 374.544,184.232 374.711,181.899 374,179.5C 371.545,176.192 369.711,172.526 368.5,168.5 Z"/></g>
<g><path style="opacity:1" fill="#f7c219" d="M 405.5,176.5 C 405.166,179.491 406.166,181.824 408.5,183.5C 408.67,185.848 409.003,188.182 409.5,190.5C 409.64,192.03 410.307,193.03 411.5,193.5C 413.047,202.953 412.713,212.286 410.5,221.5C 409.094,221.973 408.427,222.973 408.5,224.5C 408.158,225.338 407.492,225.672 406.5,225.5C 404.473,225.338 402.473,225.505 400.5,226C 401.696,226.654 401.696,227.154 400.5,227.5C 399.893,227.376 399.56,227.043 399.5,226.5C 399.833,225.167 400.167,223.833 400.5,222.5C 400.833,221.833 401.167,221.167 401.5,220.5C 403.226,218.772 404.559,216.772 405.5,214.5C 407.277,204.693 406.277,195.026 402.5,185.5C 403.068,182.242 403.234,178.909 403,175.5C 403.671,176.252 404.504,176.586 405.5,176.5 Z"/></g>
<g><path style="opacity:0.655" fill="#fbe8a7" d="M 401.5,185.5 C 401.833,185.5 402.167,185.5 402.5,185.5C 406.277,195.026 407.277,204.693 405.5,214.5C 405.666,209.489 405.499,204.489 405,199.5C 403.829,194.814 402.662,190.148 401.5,185.5 Z"/></g>
<g><path style="opacity:1" fill="#fad770" d="M 408.5,183.5 C 410.277,186.505 411.277,189.838 411.5,193.5C 410.307,193.03 409.64,192.03 409.5,190.5C 409.003,188.182 408.67,185.848 408.5,183.5 Z"/></g>
<g><path style="opacity:0.71" fill="#f8e293" d="M 173.5,193.5 C 173.31,196.855 172.31,199.855 170.5,202.5C 170.528,199.084 171.528,196.084 173.5,193.5 Z"/></g>
<g><path style="opacity:0.686" fill="#fbe799" d="M 383.5,198.5 C 384.924,200.515 385.59,202.848 385.5,205.5C 384.076,203.485 383.41,201.152 383.5,198.5 Z"/></g>
<g><path style="opacity:0.784" fill="#f8de89" d="M 411.5,193.5 C 414.449,201.246 414.949,209.246 413,217.5C 412.8,219.32 411.966,220.653 410.5,221.5C 412.713,212.286 413.047,202.953 411.5,193.5 Z"/></g>
<g><path style="opacity:1" fill="#512306" d="M 386.5,211.5 C 387.167,211.5 387.833,211.5 388.5,211.5C 393.32,213.436 394.32,216.436 391.5,220.5C 390.662,220.842 390.328,221.508 390.5,222.5C 386.174,229.546 383.174,237.212 381.5,245.5C 383.514,245.608 385.18,244.942 386.5,243.5C 387.167,243.5 387.5,243.833 387.5,244.5C 387.443,245.609 387.11,246.609 386.5,247.5C 381.904,250.446 377.571,250.113 373.5,246.5C 372.978,245.393 372.645,244.226 372.5,243C 375.19,234.115 378.857,225.615 383.5,217.5C 383.167,217.167 382.833,216.833 382.5,216.5C 375.015,223.824 368.849,232.157 364,241.5C 362.801,244.726 362.301,248.059 362.5,251.5C 357.376,252.536 354.21,250.536 353,245.5C 347.639,252.934 340.472,256.101 331.5,255C 327.145,253.813 324.811,250.979 324.5,246.5C 321.691,250.477 318.691,254.31 315.5,258C 306.013,260.354 302.513,256.854 305,247.5C 308.013,240.5 310.68,233.5 313,226.5C 304.016,234.81 297.849,244.81 294.5,256.5C 293.566,257.568 293.232,258.901 293.5,260.5C 292.167,260.5 290.833,260.5 289.5,260.5C 287.164,258.996 285.331,256.996 284,254.5C 278.218,261.976 270.718,265.143 261.5,264C 257.835,262.332 255.668,259.499 255,255.5C 252.648,260.058 249.481,263.891 245.5,267C 240.318,268.529 236.318,267.029 233.5,262.5C 230.625,268.604 225.958,270.938 219.5,269.5C 203.69,284.26 194.69,280.927 192.5,259.5C 188.075,265.098 184.241,271.098 181,277.5C 180.505,279.473 180.338,281.473 180.5,283.5C 179.167,283.5 177.833,283.5 176.5,283.5C 170.094,280.489 168.761,275.822 172.5,269.5C 173.338,269.158 173.672,268.492 173.5,267.5C 180.888,249.88 187.888,232.047 194.5,214C 194.15,212.743 193.483,212.409 192.5,213C 180.697,222.768 173.697,235.268 171.5,250.5C 170.14,249.82 168.807,249.153 167.5,248.5C 166.167,247.833 165.167,246.833 164.5,245.5C 164.204,243.597 163.537,241.93 162.5,240.5C 162.517,238.435 162.85,236.435 163.5,234.5C 164.338,234.158 164.672,233.492 164.5,232.5C 165.167,231.167 165.833,229.833 166.5,228.5C 167.167,228.5 167.5,228.167 167.5,227.5C 172.303,221.865 177.637,216.698 183.5,212C 186.552,209.971 189.886,208.804 193.5,208.5C 198.719,208.56 202.053,211.06 203.5,216C 199.968,226.597 196.468,237.097 193,247.5C 205.907,234.935 216.907,220.935 226,205.5C 227.133,203.789 228.633,203.289 230.5,204C 233.318,207.338 234.151,211.171 233,215.5C 223.69,226.643 213.857,237.31 203.5,247.5C 202.171,252.555 202.338,257.555 204,262.5C 207.031,268.074 211.531,270.074 217.5,268.5C 216.425,265.562 216.259,262.562 217,259.5C 220.408,250.356 224.075,241.356 228,232.5C 229.049,231.483 230.216,231.316 231.5,232C 233.911,232.856 235.244,234.523 235.5,237C 232.479,244.878 229.312,252.711 226,260.5C 225.192,262.579 225.359,264.579 226.5,266.5C 230.551,261.938 234.051,256.938 237,251.5C 240.158,243.848 243.325,236.181 246.5,228.5C 247.043,228.44 247.376,228.107 247.5,227.5C 245.709,226.83 244.042,226.163 242.5,225.5C 242.414,224.504 242.748,223.671 243.5,223C 245.473,222.505 247.473,222.338 249.5,222.5C 250.461,219.574 251.127,216.574 251.5,213.5C 253.163,211.562 253.829,209.228 253.5,206.5C 253.791,205.351 254.624,204.684 256,204.5C 260.033,204.38 262.533,206.213 263.5,210C 262.306,213.555 260.972,217.055 259.5,220.5C 261.718,221.057 264.051,221.057 266.5,220.5C 265.903,226.42 262.57,229.087 256.5,228.5C 251.866,239.573 247.532,250.74 243.5,262C 243.833,262.833 244.167,263.667 244.5,264.5C 246.149,263.352 247.649,262.019 249,260.5C 252.45,254.719 255.45,248.719 258,242.5C 259.944,238.89 262.277,235.557 265,232.5C 271.405,225.425 279.238,222.425 288.5,223.5C 290.561,229.671 289.228,235.005 284.5,239.5C 282.484,240.706 280.484,240.706 278.5,239.5C 280.72,237.449 281.386,235.116 280.5,232.5C 269.914,238.016 264.747,246.682 265,258.5C 265.804,259.804 266.971,260.471 268.5,260.5C 274.251,258.538 279.084,255.205 283,250.5C 293.762,234.402 300.928,216.735 304.5,197.5C 310.008,196.972 313.342,199.305 314.5,204.5C 311.836,212.312 308.67,219.978 305,227.5C 304.333,228.5 304.333,229.5 305,230.5C 307.463,227.035 310.296,223.869 313.5,221C 318.473,219.68 321.806,221.347 323.5,226C 319.926,233.651 316.759,241.485 314,249.5C 313.202,251.259 313.369,252.926 314.5,254.5C 316.895,252.056 319.062,249.39 321,246.5C 324.397,239.374 328.063,232.374 332,225.5C 338.154,218.006 345.987,214.172 355.5,214C 359.831,220.362 359.164,226.362 353.5,232C 347.813,235.562 341.646,237.729 335,238.5C 333.632,241.738 333.299,245.072 334,248.5C 334.956,249.894 336.289,250.561 338,250.5C 343.758,249.282 348.425,246.282 352,241.5C 357.963,232.96 362.796,223.793 366.5,214C 371.49,213.926 373.99,216.426 374,221.5C 376.925,216.388 381.091,213.054 386.5,211.5 Z"/></g>
<g><path style="opacity:0.439" fill="#fbebaa" d="M 170.5,202.5 C 170.59,205.152 169.924,207.485 168.5,209.5C 168.41,206.848 169.076,204.515 170.5,202.5 Z"/></g>
<g><path style="opacity:0.588" fill="#f2e1a3" d="M 385.5,205.5 C 386.201,207.588 387.201,209.588 388.5,211.5C 387.833,211.5 387.167,211.5 386.5,211.5C 385.659,209.621 385.325,207.621 385.5,205.5 Z"/></g>
<g><path style="opacity:1" fill="#a06e13" d="M 253.5,206.5 C 253.829,209.228 253.163,211.562 251.5,213.5C 251.721,210.933 252.388,208.599 253.5,206.5 Z"/></g>
<g><path style="opacity:0.824" fill="#fbe28e" d="M 168.5,210.5 C 168.093,216.161 167.76,221.828 167.5,227.5C 167.5,228.167 167.167,228.5 166.5,228.5C 166.184,222.25 166.85,216.25 168.5,210.5 Z"/></g>
<g><path style="opacity:1" fill="#54280a" d="M 239.5,207.5 C 242.641,206.908 244.974,207.908 246.5,210.5C 244.943,214.614 243.11,218.614 241,222.5C 237.469,225.433 235.303,224.6 234.5,220C 235.294,215.445 236.961,211.278 239.5,207.5 Z"/></g>
<g><path style="opacity:1" fill="#f4be11" d="M 173.5,267.5 C 172.5,265.5 171.5,263.5 170.5,261.5C 170.829,258.772 170.163,256.438 168.5,254.5C 167.659,252.621 167.325,250.621 167.5,248.5C 168.807,249.153 170.14,249.82 171.5,250.5C 173.697,235.268 180.697,222.768 192.5,213C 193.483,212.409 194.15,212.743 194.5,214C 187.888,232.047 180.888,249.88 173.5,267.5 Z"/></g>
<g><path style="opacity:0.941" fill="#eed075" d="M 391.5,220.5 C 391.62,221.586 392.287,222.253 393.5,222.5C 396.185,221.829 398.852,221.162 401.5,220.5C 401.167,221.167 400.833,221.833 400.5,222.5C 398.801,222.527 397.467,223.194 396.5,224.5C 394.5,223.833 392.5,223.167 390.5,222.5C 390.328,221.508 390.662,220.842 391.5,220.5 Z"/></g>
<g><path style="opacity:0.004" fill="#fef2c4" d="M 410.5,221.5 C 410.573,223.027 409.906,224.027 408.5,224.5C 408.427,222.973 409.094,221.973 410.5,221.5 Z"/></g>
<g><path style="opacity:1" fill="#edb91c" d="M 390.5,222.5 C 392.5,223.167 394.5,223.833 396.5,224.5C 395.559,226.05 394.893,227.716 394.5,229.5C 392.5,229.5 390.5,229.5 388.5,229.5C 388.5,232.5 388.5,235.5 388.5,238.5C 387.559,240.05 386.893,241.716 386.5,243.5C 385.18,244.942 383.514,245.608 381.5,245.5C 383.174,237.212 386.174,229.546 390.5,222.5 Z"/></g>
<g><path style="opacity:0.988" fill="#5a2d0b" d="M 400.5,222.5 C 400.167,223.833 399.833,225.167 399.5,226.5C 398.094,226.973 397.427,227.973 397.5,229.5C 396.026,230.436 395.026,231.77 394.5,233.5C 393.662,233.158 393.328,232.492 393.5,231.5C 393.833,230.833 394.167,230.167 394.5,229.5C 394.893,227.716 395.559,226.05 396.5,224.5C 397.467,223.194 398.801,222.527 400.5,222.5 Z"/></g>
<g><path style="opacity:1" fill="#926314" d="M 242.5,225.5 C 244.042,226.163 245.709,226.83 247.5,227.5C 247.376,228.107 247.043,228.44 246.5,228.5C 244.958,227.837 243.291,227.17 241.5,226.5C 241.624,225.893 241.957,225.56 242.5,225.5 Z"/></g>
<g><path style="opacity:1" fill="#efb810" d="M 348.5,223.5 C 351.167,226.081 350.833,228.581 347.5,231C 344.783,233.076 341.783,233.743 338.5,233C 341.072,228.926 344.405,225.759 348.5,223.5 Z"/></g>
<g><path style="opacity:1" fill="#f1cb60" d="M 406.5,225.5 C 404.102,227.974 401.102,229.308 397.5,229.5C 397.427,227.973 398.094,226.973 399.5,226.5C 399.56,227.043 399.893,227.376 400.5,227.5C 401.696,227.154 401.696,226.654 400.5,226C 402.473,225.505 404.473,225.338 406.5,225.5 Z"/></g>
<g><path style="opacity:0.116" fill="#f4eac8" d="M 394.5,229.5 C 394.167,230.167 393.833,230.833 393.5,231.5C 393.167,231.5 392.833,231.5 392.5,231.5C 391.791,230.596 390.791,230.263 389.5,230.5C 389.216,232.415 389.549,234.081 390.5,235.5C 390.068,236.71 389.401,237.71 388.5,238.5C 388.5,235.5 388.5,232.5 388.5,229.5C 390.5,229.5 392.5,229.5 394.5,229.5 Z"/></g>
<g><path style="opacity:0.255" fill="#f4ebbe" d="M 164.5,232.5 C 164.672,233.492 164.338,234.158 163.5,234.5C 161.5,234.5 159.5,234.5 157.5,234.5C 159.715,233.732 162.048,233.065 164.5,232.5 Z"/></g>
<g><path style="opacity:0.306" fill="#c2b3af" d="M 397.5,229.5 C 397.008,231.819 396.008,233.819 394.5,235.5C 394.5,234.833 394.5,234.167 394.5,233.5C 395.026,231.77 396.026,230.436 397.5,229.5 Z"/></g>
<g><path style="opacity:0.886" fill="#fadf8d" d="M 157.5,234.5 C 155.898,236.074 153.898,236.741 151.5,236.5C 153.102,234.926 155.102,234.259 157.5,234.5 Z"/></g>
<g><path style="opacity:1" fill="#684437" d="M 392.5,231.5 C 392.833,231.5 393.167,231.5 393.5,231.5C 393.328,232.492 393.662,233.158 394.5,233.5C 394.5,234.167 394.5,234.833 394.5,235.5C 392.735,238.709 390.735,241.709 388.5,244.5C 388.167,244.5 387.833,244.5 387.5,244.5C 387.5,243.833 387.167,243.5 386.5,243.5C 386.893,241.716 387.559,240.05 388.5,238.5C 389.401,237.71 390.068,236.71 390.5,235.5C 390.733,233.938 391.4,232.605 392.5,231.5 Z"/></g>
<g><path style="opacity:0.635" fill="#bca78e" d="M 160.5,241.5 C 160.842,240.662 161.508,240.328 162.5,240.5C 163.537,241.93 164.204,243.597 164.5,245.5C 163.167,244.167 161.833,242.833 160.5,241.5 Z"/></g>
<g><path style="opacity:0.404" fill="#f9e4a1" d="M 387.5,244.5 C 387.833,244.5 388.167,244.5 388.5,244.5C 387.706,251.825 386.039,258.825 383.5,265.5C 384.757,259.546 385.757,253.546 386.5,247.5C 387.11,246.609 387.443,245.609 387.5,244.5 Z"/></g>
<g><path style="opacity:1" fill="#f8c006" d="M 386.5,247.5 C 385.757,253.546 384.757,259.546 383.5,265.5C 383.737,266.791 383.404,267.791 382.5,268.5C 380.733,270.792 379.733,273.458 379.5,276.5C 379.008,278.819 378.008,280.819 376.5,282.5C 375.778,282.082 375.278,281.416 375,280.5C 373.242,281.469 372.742,282.636 373.5,284C 372.174,287.326 369.841,289.659 366.5,291C 367.956,291.423 368.456,292.256 368,293.5C 367.667,293.167 367.333,292.833 367,292.5C 363.48,297.685 358.98,301.852 353.5,305C 352.167,305.667 352.167,306.333 353.5,307C 352.167,307.333 350.833,307.667 349.5,308C 351.187,309.913 351.687,312.08 351,314.5C 349.333,315.833 347.667,315.833 346,314.5C 346.019,316.107 346.185,317.774 346.5,319.5C 342.852,322.66 338.852,325.327 334.5,327.5C 332.5,327.5 330.5,327.5 328.5,327.5C 328.719,328.675 328.386,329.675 327.5,330.5C 326.261,330.942 325.261,331.609 324.5,332.5C 322.08,332.708 319.747,332.374 317.5,331.5C 317.833,333.23 317.166,334.897 315.5,336.5C 313.786,337.738 311.786,338.405 309.5,338.5C 306.572,338.565 303.905,339.232 301.5,340.5C 293.192,341.413 284.859,342.08 276.5,342.5C 268.803,342.093 261.136,341.426 253.5,340.5C 249.357,337.903 244.69,336.57 239.5,336.5C 237.165,333.835 234.165,332.502 230.5,332.5C 228.347,329.938 228.014,327.104 229.5,324C 224.183,322.908 218.849,322.408 213.5,322.5C 211.973,322.573 210.973,321.906 210.5,320.5C 209.738,318.738 208.404,317.738 206.5,317.5C 205.5,317.167 204.833,316.5 204.5,315.5C 201.769,311.766 198.436,308.766 194.5,306.5C 194.158,305.662 193.492,305.328 192.5,305.5C 190.94,305.481 189.44,305.148 188,304.5C 186.347,304.82 185.347,305.82 185,307.5C 184.667,307.167 184.333,306.833 184,306.5C 183.508,307.549 183.674,308.549 184.5,309.5C 179.707,310.685 178.374,310.685 180.5,309.5C 180.5,308.5 180.5,307.5 180.5,306.5C 181.9,305.9 182.9,304.9 183.5,303.5C 185.094,302.017 186.76,300.517 188.5,299C 187.177,298.184 186.511,297.017 186.5,295.5C 185.112,291.103 183.112,287.103 180.5,283.5C 180.338,281.473 180.505,279.473 181,277.5C 184.241,271.098 188.075,265.098 192.5,259.5C 194.69,280.927 203.69,284.26 219.5,269.5C 225.958,270.938 230.625,268.604 233.5,262.5C 236.318,267.029 240.318,268.529 245.5,267C 249.481,263.891 252.648,260.058 255,255.5C 255.668,259.499 257.835,262.332 261.5,264C 270.718,265.143 278.218,261.976 284,254.5C 285.331,256.996 287.164,258.996 289.5,260.5C 290.919,261.451 292.585,261.784 294.5,261.5C 294.5,259.833 294.5,258.167 294.5,256.5C 297.849,244.81 304.016,234.81 313,226.5C 310.68,233.5 308.013,240.5 305,247.5C 302.513,256.854 306.013,260.354 315.5,258C 318.691,254.31 321.691,250.477 324.5,246.5C 324.811,250.979 327.145,253.813 331.5,255C 340.472,256.101 347.639,252.934 353,245.5C 354.21,250.536 357.376,252.536 362.5,251.5C 362.301,248.059 362.801,244.726 364,241.5C 368.849,232.157 375.015,223.824 382.5,216.5C 382.833,216.833 383.167,217.167 383.5,217.5C 378.857,225.615 375.19,234.115 372.5,243C 372.645,244.226 372.978,245.393 373.5,246.5C 377.571,250.113 381.904,250.446 386.5,247.5 Z"/></g>
<g><path style="opacity:0.102" fill="#fdf3c2" d="M 150.5,246.5 C 149.671,251.453 149.337,256.453 149.5,261.5C 149.167,261.5 148.833,261.5 148.5,261.5C 148.334,257.154 148.501,252.821 149,248.5C 149.278,247.584 149.778,246.918 150.5,246.5 Z"/></g>
<g><path style="opacity:0.68" fill="#fce49b" d="M 143.5,244.5 C 142.249,253.159 142.249,261.825 143.5,270.5C 142.003,265.565 141.003,260.399 140.5,255C 140.695,251.14 141.695,247.64 143.5,244.5 Z"/></g>
<g><path style="opacity:0.631" fill="#f8e093" d="M 168.5,254.5 C 170.163,256.438 170.829,258.772 170.5,261.5C 169.388,259.401 168.721,257.067 168.5,254.5 Z"/></g>
<g><path style="opacity:1" fill="#986507" d="M 294.5,256.5 C 294.5,258.167 294.5,259.833 294.5,261.5C 292.585,261.784 290.919,261.451 289.5,260.5C 290.833,260.5 292.167,260.5 293.5,260.5C 293.232,258.901 293.566,257.568 294.5,256.5 Z"/></g>
<g><path style="opacity:0.063" fill="#efe0ac" d="M 170.5,261.5 C 171.5,263.5 172.5,265.5 173.5,267.5C 173.672,268.492 173.338,269.158 172.5,269.5C 171.226,267.007 170.56,264.341 170.5,261.5 Z"/></g>
<g><path style="opacity:1" fill="#f8c427" d="M 157.5,234.5 C 159.5,234.5 161.5,234.5 163.5,234.5C 162.85,236.435 162.517,238.435 162.5,240.5C 161.508,240.328 160.842,240.662 160.5,241.5C 156.701,242.066 153.368,243.733 150.5,246.5C 149.778,246.918 149.278,247.584 149,248.5C 148.501,252.821 148.334,257.154 148.5,261.5C 148.335,265.182 148.501,268.848 149,272.5C 151.278,274.57 153.111,276.903 154.5,279.5C 157.437,285.041 160.104,290.708 162.5,296.5C 163.833,299.833 166.167,302.167 169.5,303.5C 169.577,304.75 170.244,305.583 171.5,306C 174.482,306.498 177.482,306.665 180.5,306.5C 180.5,307.5 180.5,308.5 180.5,309.5C 178.374,310.685 179.707,310.685 184.5,309.5C 183.674,308.549 183.508,307.549 184,306.5C 184.333,306.833 184.667,307.167 185,307.5C 185.347,305.82 186.347,304.82 188,304.5C 189.44,305.148 190.94,305.481 192.5,305.5C 190.37,308.737 187.37,310.737 183.5,311.5C 179.215,312.295 174.881,312.628 170.5,312.5C 161.771,308.77 155.771,302.437 152.5,293.5C 152.669,291.088 152.003,288.921 150.5,287C 150.735,286.127 151.069,285.293 151.5,284.5C 149.969,281.417 147.969,278.75 145.5,276.5C 144.262,274.786 143.595,272.786 143.5,270.5C 142.249,261.825 142.249,253.159 143.5,244.5C 145.167,240.833 147.833,238.167 151.5,236.5C 153.898,236.741 155.898,236.074 157.5,234.5 Z"/></g>
<g><path style="opacity:1" fill="#f9cf59" d="M 148.5,261.5 C 148.833,261.5 149.167,261.5 149.5,261.5C 150.851,267.567 152.517,273.567 154.5,279.5C 153.111,276.903 151.278,274.57 149,272.5C 148.501,268.848 148.335,265.182 148.5,261.5 Z"/></g>
<g><path style="opacity:0.353" fill="#f8e9aa" d="M 382.5,268.5 C 382.267,271.542 381.267,274.208 379.5,276.5C 379.733,273.458 380.733,270.792 382.5,268.5 Z"/></g>
<g><path style="opacity:1" fill="#673709" d="M 309.5,279.5 C 311.827,279.247 313.827,279.914 315.5,281.5C 313.997,282.052 312.331,282.052 310.5,281.5C 310.5,282.5 310.5,283.5 310.5,284.5C 314.36,284.299 316.194,285.965 316,289.5C 313.582,291.68 310.916,292.013 308,290.5C 307.312,289.668 307.479,289.002 308.5,288.5C 310.071,289.309 311.738,289.643 313.5,289.5C 313.5,288.5 313.5,287.5 313.5,286.5C 308.929,286.082 307.595,283.749 309.5,279.5 Z"/></g>
<g><path style="opacity:1" fill="#9d6c07" d="M 251.5,280.5 C 248.833,280.5 246.167,280.5 243.5,280.5C 243.335,283.85 243.502,287.183 244,290.5C 244.21,288.942 244.71,287.609 245.5,286.5C 244.71,287.609 244.21,288.942 244,290.5C 243.502,287.183 243.335,283.85 243.5,280.5C 246.167,280.5 248.833,280.5 251.5,280.5 Z"/></g>
<g><path style="opacity:1" fill="#f8cf57" d="M 145.5,276.5 C 147.969,278.75 149.969,281.417 151.5,284.5C 151.069,285.293 150.735,286.127 150.5,287C 152.003,288.921 152.669,291.088 152.5,293.5C 149.207,288.301 146.873,282.635 145.5,276.5 Z"/></g>
<g><path style="opacity:1" fill="#55270c" d="M 251.5,280.5 C 249.393,281.468 247.059,281.802 244.5,281.5C 244.5,282.5 244.5,283.5 244.5,284.5C 246.604,284.201 248.604,284.534 250.5,285.5C 248.955,286.452 247.288,286.785 245.5,286.5C 244.71,287.609 244.21,288.942 244,290.5C 243.502,287.183 243.335,283.85 243.5,280.5C 246.167,280.5 248.833,280.5 251.5,280.5 Z"/></g>
<g><path style="opacity:1" fill="#502405" d="M 261.5,281.5 C 259.5,281.5 257.5,281.5 255.5,281.5C 255.5,282.5 255.5,283.5 255.5,284.5C 263.5,285.167 263.5,285.833 255.5,286.5C 255.5,287.5 255.5,288.5 255.5,289.5C 257.5,289.5 259.5,289.5 261.5,289.5C 259.393,290.468 257.059,290.802 254.5,290.5C 254.5,287.167 254.5,283.833 254.5,280.5C 257.059,280.198 259.393,280.532 261.5,281.5 Z"/></g>
<g><path style="opacity:1" fill="#5f3009" d="M 297.5,280.5 C 300.187,280.336 302.854,280.503 305.5,281C 303.527,281.495 301.527,281.662 299.5,281.5C 299.5,282.5 299.5,283.5 299.5,284.5C 306.167,285.167 306.167,285.833 299.5,286.5C 299.5,287.5 299.5,288.5 299.5,289.5C 301.604,289.201 303.604,289.534 305.5,290.5C 302.914,291.48 300.247,291.813 297.5,291.5C 297.5,287.833 297.5,284.167 297.5,280.5 Z"/></g>
<g><path style="opacity:1" fill="#c38f1f" d="M 329.5,281.5 C 328.659,283.379 328.325,285.379 328.5,287.5C 327.549,286.081 327.216,284.415 327.5,282.5C 326.167,282.5 324.833,282.5 323.5,282.5C 323.5,282.167 323.5,281.833 323.5,281.5C 322.833,280.167 322.167,280.167 321.5,281.5C 321.5,284.5 321.5,287.5 321.5,290.5C 321.5,290.833 321.5,291.167 321.5,291.5C 320.523,288.713 320.19,285.713 320.5,282.5C 319.5,282.5 318.5,282.5 317.5,282.5C 317.5,281.5 317.5,280.5 317.5,279.5C 321.742,279.151 325.742,279.817 329.5,281.5 Z"/></g>
<g><path style="opacity:1" fill="#3c0f01" d="M 323.5,281.5 C 322.833,284.5 322.167,287.5 321.5,290.5C 321.5,287.5 321.5,284.5 321.5,281.5C 322.167,280.167 322.833,280.167 323.5,281.5 Z"/></g>
<g><path style="opacity:1" fill="#774603" d="M 323.5,281.5 C 323.5,281.833 323.5,282.167 323.5,282.5C 324.055,286.012 323.388,289.012 321.5,291.5C 321.5,291.167 321.5,290.833 321.5,290.5C 322.167,287.5 322.833,284.5 323.5,281.5 Z"/></g>
<g><path style="opacity:1" fill="#613208" d="M 220.5,279.5 C 223.157,279.162 225.49,279.829 227.5,281.5C 225.657,281.755 223.657,281.922 221.5,282C 218.833,284.333 218.833,286.667 221.5,289C 223.235,289.651 224.902,289.485 226.5,288.5C 227.604,289.631 227.271,290.465 225.5,291C 219.219,291.635 216.719,288.801 218,282.5C 219.045,281.627 219.878,280.627 220.5,279.5 Z"/></g>
<g><path style="opacity:1" fill="#653607" d="M 233.5,279.5 C 234.5,279.5 235.5,279.5 236.5,279.5C 237.397,283.134 238.73,286.634 240.5,290C 240.167,290.5 239.833,291 239.5,291.5C 238.614,290.675 238.281,289.675 238.5,288.5C 235.092,287.828 232.425,288.828 230.5,291.5C 230.167,291.167 229.833,290.833 229.5,290.5C 230.854,286.765 232.188,283.098 233.5,279.5 Z"/></g>
<g><path style="opacity:1" fill="#dea923" d="M 234.5,282.5 C 237.347,284.798 237.013,286.131 233.5,286.5C 233.433,285.041 233.766,283.708 234.5,282.5 Z"/></g>
<g><path style="opacity:1" fill="#7e520f" d="M 261.5,281.5 C 259.393,280.532 257.059,280.198 254.5,280.5C 254.5,283.833 254.5,287.167 254.5,290.5C 257.059,290.802 259.393,290.468 261.5,289.5C 262.043,289.56 262.376,289.893 262.5,290.5C 259.572,291.484 256.572,291.817 253.5,291.5C 253.5,287.5 253.5,283.5 253.5,279.5C 256.572,279.183 259.572,279.516 262.5,280.5C 262.376,281.107 262.043,281.44 261.5,281.5 Z"/></g>
<g><path style="opacity:1" fill="#68390a" d="M 271.5,279.5 C 276.258,279.883 277.258,281.883 274.5,285.5C 275.833,285.833 277.167,286.167 278.5,286.5C 277.943,288.235 277.61,289.902 277.5,291.5C 275.89,290.448 274.223,290.448 272.5,291.5C 270.971,291.471 269.804,290.804 269,289.5C 269.753,286.261 270.586,282.928 271.5,279.5 Z"/></g>
<g><path style="opacity:1" fill="#e0ac27" d="M 272.5,281.5 C 274.337,281.639 274.67,282.306 273.5,283.5C 272.702,283.043 272.369,282.376 272.5,281.5 Z"/></g>
<g><path style="opacity:1" fill="#5f3208" d="M 285.5,279.5 C 288.685,279.02 291.519,279.686 294,281.5C 294.756,283.809 294.256,285.809 292.5,287.5C 293.167,288.5 293.833,289.5 294.5,290.5C 294.167,290.833 293.833,291.167 293.5,291.5C 292.272,288.929 290.272,287.595 287.5,287.5C 287.762,288.978 287.429,290.311 286.5,291.5C 285.509,287.555 285.176,283.555 285.5,279.5 Z"/></g>
<g><path style="opacity:1" fill="#dda919" d="M 287.5,281.5 C 289.167,281.5 290.833,281.5 292.5,281.5C 292.5,282.833 292.5,284.167 292.5,285.5C 290.833,285.5 289.167,285.5 287.5,285.5C 287.5,284.167 287.5,282.833 287.5,281.5 Z"/></g>
<g><path style="opacity:1" fill="#e4af23" d="M 270.5,286.5 C 271.5,286.5 272.5,286.5 273.5,286.5C 273.5,287.5 273.5,288.5 273.5,289.5C 272.5,289.5 271.5,289.5 270.5,289.5C 270.5,288.5 270.5,287.5 270.5,286.5 Z"/></g>
<g><path style="opacity:1" fill="#603007" d="M 328.5,287.5 C 328.325,285.379 328.659,283.379 329.5,281.5C 336.642,278.326 339.808,280.659 339,288.5C 334.967,292.776 331.467,292.443 328.5,287.5 Z"/></g>
<g><path style="opacity:1" fill="#f3be0e" d="M 331.5,281.5 C 337.488,281.664 338.821,284.164 335.5,289C 333.888,289.72 332.388,289.554 331,288.5C 330.297,286.071 330.463,283.738 331.5,281.5 Z"/></g>
<g><path style="opacity:1" fill="#f9cb45" d="M 376.5,282.5 C 376.008,284.819 375.008,286.819 373.5,288.5C 372.094,288.973 371.427,289.973 371.5,291.5C 370.094,291.973 369.427,292.973 369.5,294.5C 367.889,298.051 365.556,301.051 362.5,303.5C 361.094,303.973 360.427,304.973 360.5,306.5C 356.461,311.54 351.794,315.873 346.5,319.5C 346.185,317.774 346.019,316.107 346,314.5C 347.667,315.833 349.333,315.833 351,314.5C 351.687,312.08 351.187,309.913 349.5,308C 350.833,307.667 352.167,307.333 353.5,307C 352.167,306.333 352.167,305.667 353.5,305C 358.98,301.852 363.48,297.685 367,292.5C 367.333,292.833 367.667,293.167 368,293.5C 368.456,292.256 367.956,291.423 366.5,291C 369.841,289.659 372.174,287.326 373.5,284C 372.742,282.636 373.242,281.469 375,280.5C 375.278,281.416 375.778,282.082 376.5,282.5 Z"/></g>
<g><path style="opacity:0.106" fill="#fef1c6" d="M 373.5,288.5 C 373.573,290.027 372.906,291.027 371.5,291.5C 371.427,289.973 372.094,288.973 373.5,288.5 Z"/></g>
<g><path style="opacity:0.902" fill="#f8dc8c" d="M 176.5,283.5 C 177.833,283.5 179.167,283.5 180.5,283.5C 183.112,287.103 185.112,291.103 186.5,295.5C 183.697,292.583 181.363,289.25 179.5,285.5C 178.398,284.824 177.398,284.158 176.5,283.5 Z"/></g>
<g><path style="opacity:0.2" fill="#fcefbd" d="M 371.5,291.5 C 371.573,293.027 370.906,294.027 369.5,294.5C 369.427,292.973 370.094,291.973 371.5,291.5 Z"/></g>
<g><path style="opacity:0.541" fill="#fce8a7" d="M 162.5,296.5 C 165.167,298.5 167.5,300.833 169.5,303.5C 166.167,302.167 163.833,299.833 162.5,296.5 Z"/></g>
<g><path style="opacity:0.02" fill="#fcf1c3" d="M 362.5,303.5 C 362.573,305.027 361.906,306.027 360.5,306.5C 360.427,304.973 361.094,303.973 362.5,303.5 Z"/></g>
<g><path style="opacity:0.306" fill="#fae494" d="M 169.5,303.5 C 174.132,306.081 178.798,306.081 183.5,303.5C 182.9,304.9 181.9,305.9 180.5,306.5C 177.482,306.665 174.482,306.498 171.5,306C 170.244,305.583 169.577,304.75 169.5,303.5 Z"/></g>
<g><path style="opacity:0.529" fill="#fdecb1" d="M 194.5,306.5 C 198.436,308.766 201.769,311.766 204.5,315.5C 200.564,313.234 197.231,310.234 194.5,306.5 Z"/></g>
<g><path style="opacity:1" fill="#93620e" d="M 221.5,303.5 C 223.614,306.151 223.447,308.484 221,310.5C 221.207,308.249 221.373,305.915 221.5,303.5 Z"/></g>
<g><path style="opacity:1" fill="#a06e10" d="M 333.5,304.5 C 336.506,305.349 337.506,307.183 336.5,310C 331.664,310.025 330.664,308.192 333.5,304.5 Z"/></g>
<g><path style="opacity:0.329" fill="#fae7a9" d="M 183.5,311.5 C 181.366,313.033 178.866,313.7 176,313.5C 173.967,313.494 172.134,313.161 170.5,312.5C 174.881,312.628 179.215,312.295 183.5,311.5 Z"/></g>
<g><path style="opacity:1" fill="#b88711" d="M 231.5,317.5 C 229.599,316.069 227.432,315.069 225,314.5C 224.235,312.934 224.402,311.601 225.5,310.5C 225.917,309.876 226.584,309.543 227.5,309.5C 229.483,310.47 231.483,311.47 233.5,312.5C 232.544,314.075 231.877,315.742 231.5,317.5 Z"/></g>
<g><path style="opacity:1" fill="#f2c113" d="M 225.5,310.5 C 226.5,310.5 227.5,310.5 228.5,310.5C 228.5,311.5 228.5,312.5 228.5,313.5C 227.5,313.5 226.5,313.5 225.5,313.5C 225.5,312.5 225.5,311.5 225.5,310.5 Z"/></g>
<g><path style="opacity:1" fill="#b68614" d="M 322.5,315.5 C 322.343,314.127 322.51,312.793 323,311.5C 325.621,310.689 327.955,309.355 330,307.5C 330.346,309.218 330.846,310.885 331.5,312.5C 330.369,313.604 329.535,313.271 329,311.5C 328.506,313.134 328.34,314.801 328.5,316.5C 326.435,316.483 324.435,316.15 322.5,315.5 Z"/></g>
<g><path style="opacity:1" fill="#8e600e" d="M 322.5,315.5 C 322.725,319.056 321.892,319.39 320,316.5C 318.941,316.63 318.108,317.13 317.5,318C 318.711,318.893 318.711,319.726 317.5,320.5C 315.876,319.131 315.376,317.464 316,315.5C 318.228,316.299 319.561,315.299 320,312.5C 320.377,313.942 321.21,314.942 322.5,315.5 Z"/></g>
<g><path style="opacity:0.741" fill="#fae59e" d="M 206.5,317.5 C 208.404,317.738 209.738,318.738 210.5,320.5C 208.596,320.262 207.262,319.262 206.5,317.5 Z"/></g>
<g><path style="opacity:1" fill="#936210" d="M 231.5,317.5 C 233.592,317.439 235.092,316.439 236,314.5C 236.215,316.42 235.548,318.086 234,319.5C 233.005,318.934 232.172,318.267 231.5,317.5 Z"/></g>
<g><path style="opacity:1" fill="#99670b" d="M 237.5,315.5 C 238.978,315.238 240.311,315.571 241.5,316.5C 239.291,317.063 237.791,318.396 237,320.5C 236.616,318.803 236.782,317.137 237.5,315.5 Z"/></g>
<g><path style="opacity:1" fill="#a67412" d="M 245.5,317.5 C 248.746,316.528 251.58,317.528 254,320.5C 254.808,322.579 254.641,324.579 253.5,326.5C 252.833,325.5 252.167,324.5 251.5,323.5C 250.808,324.025 250.308,324.692 250,325.5C 250.706,316.88 249.539,316.547 246.5,324.5C 245.511,322.412 245.844,320.412 247.5,318.5C 247.043,317.702 246.376,317.369 245.5,317.5 Z"/></g>
<g><path style="opacity:1" fill="#996e10" d="M 263.5,320.5 C 264.376,320.369 265.043,320.702 265.5,321.5C 264.787,323.776 264.287,326.109 264,328.5C 263.503,325.854 263.336,323.187 263.5,320.5 Z"/></g>
<g><path style="opacity:1" fill="#a77410" d="M 288.5,320.5 C 292.47,321.979 292.137,322.646 287.5,322.5C 287.5,324.167 287.5,325.833 287.5,327.5C 288.978,327.762 290.311,327.429 291.5,326.5C 290.975,325.808 290.308,325.308 289.5,325C 291.319,324.217 292.652,324.717 293.5,326.5C 291.401,329.984 288.901,330.318 286,327.5C 284.916,324.341 285.75,322.008 288.5,320.5 Z"/></g>
<g><path style="opacity:1" fill="#845812" d="M 311.5,321.5 C 311.565,321.938 311.399,322.272 311,322.5C 309.271,322.026 308.105,321.026 307.5,319.5C 308.251,318.427 309.251,318.26 310.5,319C 309.833,319.333 309.167,319.667 308.5,320C 309.737,320.232 310.737,320.732 311.5,321.5 Z"/></g>
<g><path style="opacity:1" fill="#f9ca43" d="M 213.5,322.5 C 218.849,322.408 224.183,322.908 229.5,324C 228.014,327.104 228.347,329.938 230.5,332.5C 224.046,330.442 218.379,327.109 213.5,322.5 Z"/></g>
<g><path style="opacity:1" fill="#c79516" d="M 307.5,319.5 C 308.105,321.026 309.271,322.026 311,322.5C 311.399,322.272 311.565,321.938 311.5,321.5C 312.774,322.189 312.774,323.023 311.5,324C 308.868,324.449 306.368,325.283 304,326.5C 302.739,326.241 301.739,325.574 301,324.5C 299.713,327.145 297.547,328.145 294.5,327.5C 293.404,322.624 295.071,320.957 299.5,322.5C 301.973,321.004 304.64,320.004 307.5,319.5 Z"/></g>
<g><path style="opacity:1" fill="#a6730e" d="M 257.5,322.5 C 258.542,321.209 259.708,321.209 261,322.5C 262.917,328.34 261.084,330.34 255.5,328.5C 257.036,325.107 258.036,325.107 258.5,328.5C 259.357,327.264 260.023,325.931 260.5,324.5C 259.995,323.081 258.995,322.415 257.5,322.5 Z"/></g>
<g><path style="opacity:1" fill="#976809" d="M 266.5,323.5 C 267.788,325.035 267.788,326.701 266.5,328.5C 265.566,326.905 265.566,325.239 266.5,323.5 Z"/></g>
<g><path style="opacity:1" fill="#aa7710" d="M 269.5,323.5 C 274.241,323.161 275.574,325.161 273.5,329.5C 272.167,322.833 270.833,322.833 269.5,329.5C 268.306,327.484 268.306,325.484 269.5,323.5 Z"/></g>
<g><path style="opacity:1" fill="#9f6c13" d="M 277.5,323.5 C 282.519,325.32 282.519,326.82 277.5,328C 278.5,328.333 279.5,328.667 280.5,329C 275.289,329.546 274.289,327.713 277.5,323.5 Z"/></g>
<g><path style="opacity:1" fill="#fcdd7c" d="M 334.5,327.5 C 331.636,330.014 328.302,331.68 324.5,332.5C 325.261,331.609 326.261,330.942 327.5,330.5C 328.386,329.675 328.719,328.675 328.5,327.5C 330.5,327.5 332.5,327.5 334.5,327.5 Z"/></g>
<g><path style="opacity:1" fill="#fcd56a" d="M 324.5,332.5 C 321.912,334.592 318.912,335.925 315.5,336.5C 317.166,334.897 317.833,333.23 317.5,331.5C 319.747,332.374 322.08,332.708 324.5,332.5 Z"/></g>
<g><path style="opacity:1" fill="#fadd80" d="M 230.5,332.5 C 234.165,332.502 237.165,333.835 239.5,336.5C 236.088,335.925 233.088,334.592 230.5,332.5 Z"/></g>
<g><path style="opacity:0.49" fill="#fae190" d="M 239.5,336.5 C 244.69,336.57 249.357,337.903 253.5,340.5C 248.471,340.08 243.805,338.746 239.5,336.5 Z"/></g>
<g><path style="opacity:0.102" fill="#fcf1c5" d="M 309.5,338.5 C 307.162,340.04 304.495,340.706 301.5,340.5C 303.905,339.232 306.572,338.565 309.5,338.5 Z"/></g>
<g><path style="opacity:0.346" fill="#fdeeb0" d="M 253.5,340.5 C 261.136,341.426 268.803,342.093 276.5,342.5C 284.859,342.08 293.192,341.413 301.5,340.5C 293.618,342.672 285.451,343.672 277,343.5C 268.87,343.741 261.036,342.741 253.5,340.5 Z"/></g>
</svg>
